<svg width="48" height="48" viewBox="0 0 48 48" fill="none" xmlns="http://www.w3.org/2000/svg">
<path d="M24 48C37.2548 48 48 37.2548 48 24C48 10.7452 37.2548 0 24 0C10.7452 0 0 10.7452 0 24C0 37.2548 10.7452 48 24 48Z" fill="#E0995E"/>
<g opacity="0.2">
<path opacity="0.2" d="M27 17.25V10.5H14.25C13.0073 10.5 12 11.5073 12 12.75V38.25C12 39.4928 13.0073 40.5 14.25 40.5H33.75C34.9928 40.5 36 39.4928 36 38.25V19.5H29.25C28.0072 19.5 27 18.4928 27 17.25Z" fill="#231F20"/>
</g>
<path d="M27 15.75V9H14.25C13.0073 9 12 10.0073 12 11.25V36.75C12 37.9928 13.0073 39 14.25 39H33.75C34.9928 39 36 37.9928 36 36.75V18H29.25C28.0072 18 27 16.9928 27 15.75Z" fill="#F9F9F6"/>
<g opacity="0.2">
<path opacity="0.2" d="M27.7621 17.4705L36.0001 24.75V18L27.7621 17.4705Z" fill="#231F20"/>
</g>
<path d="M27 9V15.75C27 16.9928 28.0073 18 29.25 18H36L27 9Z" fill="white"/>
<g opacity="0.3">
<path opacity="0.2" d="M23.7188 16.5H16.5V18H23.7188V16.5Z" fill="#231F20"/>
<path opacity="0.2" d="M31.5 24H16.5V25.5H31.5V24Z" fill="#231F20"/>
<path opacity="0.2" d="M31.5 20.25H16.5V21.75H31.5V20.25Z" fill="#231F20"/>
<path opacity="0.2" d="M31.5 27.75H16.5V29.25H31.5V27.75Z" fill="#231F20"/>
<path opacity="0.2" d="M31.5 31.5H16.5V33H31.5V31.5Z" fill="#231F20"/>
</g>
</svg>
