<svg width="18" height="18" viewBox="0 0 18 18" fill="none" xmlns="http://www.w3.org/2000/svg">
<path d="M16 3.41L5.7 13.71C5.6096 13.814 5.49868 13.8982 5.3742 13.9573C5.24972 14.0164 5.11438 14.0491 4.97665 14.0534C4.83892 14.0578 4.70179 14.0336 4.57385 13.9824C4.44592 13.9312 4.32994 13.8541 4.2332 13.756C4.13646 13.6579 4.06104 13.5408 4.01167 13.4122C3.96231 13.2835 3.94007 13.1461 3.94634 13.0084C3.95261 12.8708 3.98726 12.7359 4.04812 12.6123C4.10898 12.4886 4.19474 12.3789 4.3 12.29L14.58 2H11C10.7348 2 10.4804 1.89464 10.2929 1.70711C10.1054 1.51957 10 1.26522 10 1C10 0.734784 10.1054 0.48043 10.2929 0.292893C10.4804 0.105357 10.7348 0 11 0H17C17.2652 0 17.5196 0.105357 17.7071 0.292893C17.8946 0.48043 18 0.734784 18 1V7C18 7.26522 17.8946 7.51957 17.7071 7.70711C17.5196 7.89464 17.2652 8 17 8C16.7348 8 16.4804 7.89464 16.2929 7.70711C16.1054 7.51957 16 7.26522 16 7V3.41ZM14 11C14 10.7348 14.1054 10.4804 14.2929 10.2929C14.4804 10.1054 14.7348 10 15 10C15.2652 10 15.5196 10.1054 15.7071 10.2929C15.8946 10.4804 16 10.7348 16 11V16C16 16.5304 15.7893 17.0391 15.4142 17.4142C15.0391 17.7893 14.5304 18 14 18H2C1.46957 18 0.960859 17.7893 0.585786 17.4142C0.210714 17.0391 0 16.5304 0 16V4C0 2.9 0.9 2 2 2H7C7.26522 2 7.51957 2.10536 7.70711 2.29289C7.89464 2.48043 8 2.73478 8 3C8 3.26522 7.89464 3.51957 7.70711 3.70711C7.51957 3.89464 7.26522 4 7 4H2V16H14V11Z" fill="#999999"/>
</svg>
