<svg width="48" height="48" viewBox="0 0 48 48" fill="none" xmlns="http://www.w3.org/2000/svg">
<path d="M24 48C37.2548 48 48 37.2548 48 24C48 10.7452 37.2548 0 24 0C10.7452 0 0 10.7452 0 24C0 37.2548 10.7452 48 24 48Z" fill="#C75C5C"/>
<g opacity="0.2">
<g opacity="0.2">
<g opacity="0.2">
<path opacity="0.2" d="M31.8458 33.0001C31.3425 33.0001 30.8513 32.7466 30.567 32.2868C30.132 31.5818 30.3518 30.6578 31.0568 30.2228L38.6498 25.5413C38.6535 25.5278 38.655 25.5143 38.655 25.4993C38.655 25.4843 38.6535 25.4708 38.6498 25.4573L31.0575 20.7773C30.3525 20.3423 30.1335 19.4183 30.5678 18.7133C31.0028 18.0083 31.9268 17.7893 32.6318 18.2236L40.6043 23.1391L40.728 23.2628C41.3258 23.8606 41.655 24.6548 41.655 25.5001C41.655 26.3446 41.3258 27.1396 40.728 27.7373L40.6035 27.8618L32.631 32.7773C32.3865 32.9281 32.1143 33.0001 31.8458 33.0001Z" fill="#231F20"/>
</g>
</g>
<g opacity="0.2">
<g opacity="0.2">
<path opacity="0.2" d="M16.1542 33C15.8857 33 15.6135 32.928 15.3682 32.7765L7.39574 27.861L7.27124 27.7365C6.67349 27.1395 6.34424 26.3445 6.34424 25.5C6.34424 24.6548 6.67349 23.8598 7.27124 23.2628L7.39499 23.139L15.3675 18.2235C16.0732 17.7885 16.9965 18.0083 17.4315 18.7133C17.8665 19.4183 17.6467 20.3423 16.9417 20.7773L9.34874 25.4588C9.34499 25.4723 9.34349 25.4858 9.34349 25.5008C9.34349 25.5158 9.34499 25.5293 9.34874 25.5428L16.9417 30.2243C17.6467 30.6593 17.8657 31.5833 17.4315 32.2883C17.1487 32.7473 16.6567 33 16.1542 33Z" fill="#231F20"/>
</g>
</g>
</g>
<g opacity="0.2">
<g opacity="0.2">
<path opacity="0.2" d="M19.1249 39.75C18.9472 39.75 18.7657 39.7185 18.5894 39.651C17.8154 39.3548 17.4284 38.4878 17.7239 37.7138L27.4739 12.2138C27.7702 11.4398 28.6372 11.052 29.4112 11.3483C30.1852 11.6445 30.5722 12.5115 30.2767 13.2855L20.5267 38.7855C20.2972 39.3833 19.7287 39.75 19.1249 39.75Z" fill="#231F20"/>
</g>
</g>
<path d="M31.8457 31.5C31.3424 31.5 30.8504 31.2472 30.5669 30.7875C30.1319 30.0825 30.3517 29.1577 31.0567 28.7235L38.6489 24.0427C38.6564 24.015 38.6564 23.9857 38.6489 23.958L31.0574 19.2765C30.3524 18.8422 30.1327 17.9175 30.5677 17.2125C31.0027 16.5075 31.9259 16.2877 32.6317 16.7235L40.6049 21.639L40.7294 21.7627C41.9624 22.9972 41.9624 25.0035 40.7294 26.238L40.6049 26.3617L32.6317 31.2772C32.3864 31.428 32.1142 31.5 31.8457 31.5Z" fill="#FBFBF9"/>
<path d="M16.1542 31.5C15.8857 31.5 15.6142 31.428 15.369 31.2765L7.39495 26.361L7.27045 26.2372C6.03745 25.0027 6.03745 22.9965 7.27045 21.762L7.39495 21.6382L15.3682 16.7227C16.0725 16.287 16.998 16.5067 17.4322 17.2117C17.8672 17.9167 17.6475 18.8415 16.9425 19.2757L9.3502 23.9565C9.3427 23.9842 9.3427 24.0135 9.3502 24.0412L16.9425 28.722C17.6475 29.1562 17.8672 30.081 17.4322 30.786C17.1487 31.2472 16.6567 31.5 16.1542 31.5Z" fill="#FBFBF9"/>
<path d="M19.1249 38.2507C18.9472 38.2507 18.7657 38.2185 18.5894 38.151C17.8154 37.8547 17.4284 36.9877 17.7239 36.2145L27.4739 10.7145C27.7702 9.94123 28.6372 9.55198 29.4112 9.84898C30.1852 10.1452 30.5722 11.0122 30.2767 11.7855L20.5267 37.2855C20.2972 37.8832 19.7287 38.2507 19.1249 38.2507Z" fill="#FBFBF9"/>
</svg>
