<svg width="64" height="64" viewBox="0 0 64 64" fill="none" xmlns="http://www.w3.org/2000/svg">
<path d="M32 64C49.6731 64 64 49.6731 64 32C64 14.3269 49.6731 0 32 0C14.3269 0 0 14.3269 0 32C0 49.6731 14.3269 64 32 64Z" fill="#77B3D4"/>
<g opacity="0.2">
<path opacity="0.2" d="M32 60C30.896 60 30 59.104 30 58V14C30 12.896 30.896 12 32 12C33.104 12 34 12.896 34 14V58C34 59.104 33.104 60 32 60Z" fill="#231F20"/>
</g>
<path d="M32 12V56" stroke="#F5CF87" stroke-width="4" stroke-miterlimit="10" stroke-linecap="round"/>
<path opacity="0.2" d="M18.485 16C18.069 16 17.481 16.246 17.177 16.547L12.227 21.454C11.924 21.755 11.924 22.247 12.227 22.547L17.177 27.454C17.481 27.754 18.069 28 18.485 28H39.244C39.66 28 40 27.64 40 27.201V16.799C40 16.36 39.66 16 39.244 16H18.485Z" fill="#231F20"/>
<path opacity="0.2" d="M49.515 42C49.931 42 50.519 41.754 50.823 41.453L55.773 36.546C56.076 36.245 56.076 35.753 55.773 35.453L50.823 30.546C50.519 30.246 49.931 30 49.515 30H24.756C24.34 30 24 30.36 24 30.799V41.201C24 41.64 24.34 42 24.756 42H49.515Z" fill="#231F20"/>
<path d="M18.485 14C18.069 14 17.481 14.246 17.177 14.547L12.227 19.454C11.924 19.755 11.924 20.247 12.227 20.547L17.177 25.454C17.481 25.754 18.069 26 18.485 26H39.244C39.66 26 40 25.64 40 25.201V14.799C40 14.36 39.66 14 39.244 14H18.485Z" fill="#4F5D73"/>
<path d="M49.515 40C49.931 40 50.519 39.754 50.823 39.453L55.773 34.546C56.076 34.245 56.076 33.753 55.773 33.453L50.823 28.546C50.519 28.246 49.931 28 49.515 28H24.756C24.34 28 24 28.36 24 28.799V39.201C24 39.64 24.34 40 24.756 40H49.515Z" fill="white"/>
</svg>
