<svg width="26" height="26" viewBox="0 0 26 26" fill="none" xmlns="http://www.w3.org/2000/svg">
<g clip-path="url(#clip0)">
<path d="M13 26C15.0426 26 16.9683 25.5158 18.6875 24.6756C14.3618 22.5648 11.375 18.1366 11.375 13C11.375 7.86337 14.3618 3.43525 18.6875 1.32437C16.9683 0.48425 15.0426 0 13 0C5.82075 0 0 5.82075 0 13C0 20.1793 5.82075 26 13 26Z" fill="white"/>
<path d="M22.75 4.875C22.75 6.67063 21.2956 8.125 19.5 8.125C21.2956 8.125 22.75 9.57937 22.75 11.375C22.75 9.57937 24.2044 8.125 26 8.125C24.2044 8.125 22.75 6.67063 22.75 4.875Z" fill="white"/>
<path d="M16.25 9.75C16.25 11.5456 14.7956 13 13 13C14.7956 13 16.25 14.4544 16.25 16.25C16.25 14.4544 17.7044 13 19.5 13C17.7044 13 16.25 11.5456 16.25 9.75Z" fill="white"/>
<path d="M21.125 21.125C21.125 19.3294 22.5794 17.875 24.375 17.875C22.5794 17.875 21.125 16.4206 21.125 14.625C21.125 16.4206 19.6706 17.875 17.875 17.875C19.6706 17.875 21.125 19.3294 21.125 21.125Z" fill="white"/>
</g>
<defs>
<clipPath id="clip0">
<rect width="26" height="26" fill="white"/>
</clipPath>
</defs>
</svg>
