<svg width="48" height="48" viewBox="0 0 48 48" fill="none" xmlns="http://www.w3.org/2000/svg">
<path d="M24 48C37.2548 48 48 37.2548 48 24C48 10.7452 37.2548 0 24 0C10.7452 0 0 10.7452 0 24C0 37.2548 10.7452 48 24 48Z" fill="none"/>
<ellipse cx="21" cy="35" rx="11" ry="2" fill="black" fill-opacity="0.1"/>
<path d="M39 35C39 36.1046 33.1797 37 26 37C18.8203 37 10 36.1046 10 35C10 33.8954 18.8203 33 26 33C33.1797 33 39 33.8954 39 35Z" fill="black" fill-opacity="0.15"/>
<path d="M12.3213 30.6564C11.5172 29.8796 11.5061 28.5944 12.2967 27.8038L22.1716 17.9289L32.0711 27.8284L25.5061 34.3934C25.1327 34.7669 24.6267 34.9774 24.0986 34.9792L17.6332 35.0009C17.1124 35.0026 16.6115 34.8011 16.2369 34.4393L12.3213 30.6564Z" fill="#76B0A0"/>
<path d="M22.1716 17.9289L27.8285 12.2721C28.6095 11.491 29.8759 11.491 30.6569 12.2721L37.728 19.3431C38.509 20.1242 38.509 21.3905 37.728 22.1716L32.0711 27.8284L22.1716 17.9289Z" fill="#CC5D41"/>
<line x1="22.1716" y1="17.9289" x2="32.0711" y2="27.8284" stroke="#FFFFEA" stroke-width="2"/>
</svg>
