<svg width="32" height="32" viewBox="0 0 32 32" xmlns="http://www.w3.org/2000/svg">
<path d="M16 32C24.8366 32 32 24.8366 32 16C32 7.16344 24.8366 0 16 0C7.16344 0 0 7.16344 0 16C0 24.8366 7.16344 32 16 32Z"/>
<g opacity="0.2">
<g opacity="0.2">
<path opacity="0.2" d="M24 26.25C23.68 26.25 23.36 26.128 23.116 25.884L17.116 19.884C16.6275 19.3955 16.6275 18.6045 17.116 18.1165C17.604 17.628 18.396 17.628 18.8835 18.1165L24.8835 24.1165C25.372 24.605 25.372 25.396 24.8835 25.884C24.64 26.128 24.32 26.25 24 26.25Z" fill="#231F20"/>
</g>
</g>
<path d="M24 25.25C23.68 25.25 23.36 25.128 23.116 24.884L17.116 18.884C16.6275 18.3955 16.6275 17.6045 17.116 17.1165C17.604 16.628 18.396 16.628 18.8835 17.1165L24.8835 23.1165C25.372 23.605 25.372 24.396 24.8835 24.884C24.64 25.128 24.32 25.25 24 25.25Z" fill="#4F5D73"/>
<path d="M17.9287 17.929C19.992 15.8656 19.992 12.5203 17.9287 10.457C15.8654 8.39372 12.5201 8.39372 10.4568 10.457C8.39349 12.5203 8.39349 15.8656 10.4568 17.929C12.5201 19.9923 15.8654 19.9923 17.9287 17.929Z" fill="white"/>
<g opacity="0.2">
<g opacity="0.2">
<path opacity="0.2" d="M14.193 9.90948C15.545 9.90948 16.8975 10.4255 17.929 11.457C19.9925 13.5205 19.9925 16.8655 17.929 18.929C16.8975 19.9605 15.545 20.4765 14.193 20.4765C12.841 20.4765 11.4885 19.9605 10.457 18.929C8.39347 16.8655 8.39347 13.5205 10.457 11.457C11.4885 10.4255 12.841 9.90948 14.193 9.90948ZM14.193 7.90948C12.2475 7.90948 10.4185 8.66698 9.04298 10.043C6.20298 12.883 6.20298 17.5035 9.04298 20.3435C10.4185 21.719 12.2475 22.477 14.193 22.477C16.1385 22.477 17.9675 21.7195 19.343 20.3435C22.183 17.5035 22.183 12.883 19.343 10.043C17.9675 8.66698 16.1385 7.90948 14.193 7.90948Z" fill="#231F20"/>
</g>
</g>
<path d="M14.193 8.90948C15.545 8.90948 16.8975 9.42548 17.929 10.457C19.9925 12.5205 19.9925 15.8655 17.929 17.929C16.8975 18.9605 15.545 19.4765 14.193 19.4765C12.841 19.4765 11.4885 18.9605 10.457 17.929C8.39347 15.8655 8.39347 12.5205 10.457 10.457C11.4885 9.42548 12.841 8.90948 14.193 8.90948ZM14.193 6.90948C12.2475 6.90948 10.4185 7.66698 9.04298 9.04298C6.20298 11.883 6.20298 16.5035 9.04298 19.3435C10.4185 20.719 12.2475 21.477 14.193 21.477C16.1385 21.477 17.9675 20.7195 19.343 19.3435C22.183 16.5035 22.183 11.883 19.343 9.04298C17.9675 7.66698 16.1385 6.90948 14.193 6.90948Z" fill="#64A8CE"/>
</svg>
