<svg width="20" height="20" viewBox="0 0 20 20" fill="none" xmlns="http://www.w3.org/2000/svg">
<path d="M10 15C12.7614 15 15 12.7614 15 10C15 7.23858 12.7614 5 10 5C7.23858 5 5 7.23858 5 10C5 12.7614 7.23858 15 10 15Z" fill="#EEEEEE"/>
<path d="M11 1H10V3H11V1Z" fill="#EEEEEE"/>
<path d="M11 16H10V19H11V16Z" fill="#EEEEEE"/>
<path d="M19 9H17V10H19V9Z" fill="#EEEEEE"/>
<path d="M4 9H1V10H4V9Z" fill="#EEEEEE"/>
<path d="M15.145 14.0587L14.3082 14.8955L15.9817 16.5689L16.8184 15.7322L15.145 14.0587Z" fill="#EEEEEE"/>
<path d="M4.26801 3.18106L3.43127 4.01779L5.10474 5.69126L5.94148 4.85453L4.26801 3.18106Z" fill="#EEEEEE"/>
<path d="M5.10438 14.0583L3.43091 15.7318L4.26764 16.5685L5.94111 14.8951L5.10438 14.0583Z" fill="#EEEEEE"/>
<path d="M15.9818 3.18124L14.3083 4.85471L15.1451 5.69144L16.8186 4.01797L15.9818 3.18124Z" fill="#EEEEEE"/>
</svg>
