<svg width="32" height="32" viewBox="0 0 32 32" fill="none" xmlns="http://www.w3.org/2000/svg">
<path d="M26.2856 16C26.2856 14.6071 26.0148 13.2768 25.4731 12.0089C24.9315 10.7411 24.1993 9.64583 23.2767 8.72321C22.3541 7.80059 21.2588 7.06845 19.991 6.52678C18.7231 5.98511 17.3928 5.71428 15.9999 5.71428C14.6071 5.71428 13.2767 5.98511 12.0089 6.52678C10.741 7.06845 9.64577 7.80059 8.72316 8.72321C7.80054 9.64583 7.0684 10.7411 6.52673 12.0089C5.98507 13.2768 5.71423 14.6071 5.71423 16C5.71423 17.3929 5.98507 18.7232 6.52673 19.9911C7.0684 21.2589 7.80054 22.3542 8.72316 23.2768C9.64577 24.1994 10.741 24.9315 12.0089 25.4732C13.2767 26.0149 14.6071 26.2857 15.9999 26.2857C17.3928 26.2857 18.7231 26.0149 19.991 25.4732C21.2588 24.9315 22.3541 24.1994 23.2767 23.2768C24.1993 22.3542 24.9315 21.2589 25.4731 19.9911C26.0148 18.7232 26.2856 17.3929 26.2856 16ZM31.2142 20.9464C31.1666 21.125 31.0475 21.244 30.857 21.3036L25.6428 23.0179V28.4821C25.6428 28.6726 25.5654 28.8274 25.4106 28.9464C25.2321 29.0655 25.0594 29.0893 24.8928 29.0179L19.6785 27.3393L16.4642 31.7679C16.3452 31.9226 16.1904 32 15.9999 32C15.8095 32 15.6547 31.9226 15.5356 31.7679L12.3214 27.3393L7.10709 29.0179C6.94042 29.0893 6.7678 29.0655 6.58923 28.9464C6.43447 28.8274 6.35709 28.6726 6.35709 28.4821V23.0179L1.14281 21.3036C0.952338 21.244 0.833291 21.125 0.785672 20.9464C0.726148 20.744 0.749958 20.5714 0.8571 20.4286L4.07138 16L0.8571 11.5714C0.749958 11.4167 0.726148 11.244 0.785672 11.0536C0.833291 10.875 0.952338 10.7559 1.14281 10.6964L6.35709 8.98214V3.51785C6.35709 3.32738 6.43447 3.17261 6.58923 3.05357C6.7678 2.93452 6.94042 2.91071 7.10709 2.98214L12.3214 4.66071L15.5356 0.232139C15.6428 0.0892814 15.7975 0.0178528 15.9999 0.0178528C16.2023 0.0178528 16.3571 0.0892814 16.4642 0.232139L19.6785 4.66071L24.8928 2.98214C25.0594 2.91071 25.2321 2.93452 25.4106 3.05357C25.5654 3.17261 25.6428 3.32738 25.6428 3.51785V8.98214L30.857 10.6964C31.0475 10.7559 31.1666 10.875 31.2142 11.0536C31.2737 11.244 31.2499 11.4167 31.1428 11.5714L27.9285 16L31.1428 20.4286C31.2499 20.5714 31.2737 20.744 31.2142 20.9464Z" fill="#C2CAD5"/>
<circle cx="16" cy="16" r="8" fill="#C2CAD5"/>
</svg>
