<svg width="48" height="48" viewBox="0 0 48 48" fill="none" xmlns="http://www.w3.org/2000/svg">
<path d="M24 48C37.2548 48 48 37.2548 48 24C48 10.7452 37.2548 0 24 0C10.7452 0 0 10.7452 0 24C0 37.2548 10.7452 48 24 48Z"/>
<path opacity="0.2" d="M37.326 36.2873L33.3413 32.3025C33.2993 32.2605 33.2505 32.229 33.2063 32.1923C34.9508 29.9168 36 27.0818 36 24C36 16.5563 29.9438 10.5 22.5 10.5C15.0562 10.5 9 16.5563 9 24C9 31.4438 15.0562 37.5 22.5 37.5C25.5247 37.5 28.311 36.4875 30.5647 34.8008C30.606 34.8518 30.642 34.9058 30.69 34.9538L34.6748 38.9385C35.04 39.3045 35.52 39.4875 36 39.4875C36.48 39.4875 36.96 39.3045 37.326 38.9385C38.058 38.2065 38.058 37.0193 37.326 36.2873ZM22.5 34.5C16.701 34.5 12 29.799 12 24C12 18.201 16.701 13.5 22.5 13.5C28.299 13.5 33 18.201 33 24C33 29.799 28.299 34.5 22.5 34.5Z" fill="#231F20"/>
<g opacity="0.2">
<path opacity="0.2" d="M27.375 25.5H17.625C16.7962 25.5 16.125 24.828 16.125 24C16.125 23.172 16.7962 22.5 17.625 22.5H27.375C28.203 22.5 28.875 23.172 28.875 24C28.875 24.828 28.203 25.5 27.375 25.5Z" fill="#231F20"/>
</g>
<path d="M36 37.9875C35.52 37.9875 35.04 37.8045 34.674 37.4385L30.6893 33.4537C29.9573 32.7217 29.9573 31.5345 30.6893 30.8025C31.4213 30.0697 32.6093 30.0697 33.3405 30.8025L37.3253 34.7872C38.0573 35.5192 38.0573 36.7065 37.3253 37.4385C36.96 37.8045 36.48 37.9875 36 37.9875Z" fill="#4F5D73"/>
<path d="M22.5 12C28.299 12 33 16.701 33 22.5C33 28.299 28.299 33 22.5 33C16.701 33 12 28.299 12 22.5C12 16.701 16.701 12 22.5 12ZM22.5 9C15.0562 9 9 15.0562 9 22.5C9 29.9438 15.0562 36 22.5 36C29.9438 36 36 29.9438 36 22.5C36 15.0562 29.9438 9 22.5 9Z" fill="#4F5D73"/>
<path d="M27.375 24H17.625C16.7962 24 16.125 23.328 16.125 22.5C16.125 21.672 16.7962 21 17.625 21H27.375C28.203 21 28.875 21.672 28.875 22.5C28.875 23.328 28.203 24 27.375 24Z" fill="#333333"/>
</svg>
